<?xml version="1.0" encoding="UTF-8" standalone="no"?>
<!DOCTYPE svg PUBLIC "-//W3C//DTD SVG 20010904//EN"
              "http://www.w3.org/TR/2001/REC-SVG-20010904/DTD/svg10.dtd">

<svg xmlns="http://www.w3.org/2000/svg"
     width="705.467mm" height="705.467mm"
     viewBox="0 0 2000 2000">
  <path id="ext_contour"
        fill="none" stroke="black" stroke-width="1"
        d="M 1000.67,1970.67
           C 1000.67,1970.67 836.67,1876.67 836.67,1876.67
             836.67,1876.67 734.00,1800.00 734.00,1800.00
             734.00,1800.00 635.00,1719.00 635.00,1719.00
             635.00,1719.00 533.00,1611.00 533.00,1611.00
             533.00,1611.00 440.00,1493.00 440.00,1493.00
             440.00,1493.00 366.50,1367.00 366.50,1367.00
             366.50,1367.00 310.67,1234.67 310.67,1234.67
             310.67,1234.67 273.33,1089.33 273.33,1089.33
             273.33,1089.33 259.33,971.33 259.33,971.33
             259.33,971.33 327.00,938.00 327.00,938.00
             327.00,938.00 388.00,896.00 388.00,896.00
             388.00,896.00 443.00,847.00 443.00,847.00
             443.00,847.00 481.33,800.00 482.00,800.00
             482.67,800.00 504.67,746.67 504.67,746.67
             504.67,746.67 590.67,749.33 590.67,749.33
             590.67,749.33 540.00,696.67 540.00,696.67
             540.00,696.67 503.33,639.33 503.33,639.33
             503.33,639.33 482.00,567.33 482.00,567.33
             482.00,567.33 474.67,500.67 474.67,500.67
             474.67,500.67 492.67,409.33 492.67,409.33
             492.67,409.33 532.00,328.00 532.00,328.00
             532.00,328.00 564.00,255.33 564.00,255.33
             564.00,255.33 570.67,195.33 570.67,195.33
             570.67,195.33 567.33,126.67 567.33,126.67
             567.33,126.67 533.33,30.67 533.33,30.67
             533.33,30.67 596.67,62.00 596.67,62.00
             596.67,62.00 653.33,81.33 653.33,81.33
             653.33,81.33 720.00,88.67 720.00,88.67
             720.00,88.67 809.33,78.67 809.33,78.67
             809.33,78.67 898.00,54.00 898.67,54.00
             899.33,54.00 1001.00,41.00 1001.00,41.00
             1001.00,41.00 1116.00,56.00 1116.00,56.00
             1116.00,56.00 1196.00,79.00 1196.00,79.00
             1196.00,79.00 1267.33,89.33 1267.33,89.33
             1267.33,89.33 1327.33,84.67 1327.33,84.67
             1327.33,84.67 1396.00,64.67 1396.00,64.67
             1396.00,64.67 1466.00,28.67 1466.00,28.67
             1466.00,28.67 1434.00,121.00 1434.00,121.00
             1434.00,121.00 1428.67,200.67 1428.67,200.67
             1428.67,200.67 1446.00,279.00 1446.00,279.00
             1446.00,279.00 1485.00,350.00 1485.00,350.00
             1485.00,350.00 1517.00,429.33 1517.00,430.00
             1517.00,430.67 1526.67,494.00 1526.67,494.00
             1526.67,494.00 1522.00,565.33 1522.00,565.33
             1522.00,565.33 1503.33,634.67 1503.33,634.67
             1503.33,634.67 1460.00,702.67 1460.00,702.67
             1460.00,702.67 1408.67,749.33 1408.67,749.33
             1408.67,749.33 1493.33,748.00 1493.33,748.00
             1493.33,748.00 1528.67,811.33 1528.67,811.33
             1528.67,811.33 1566.00,854.67 1566.00,854.67
             1566.00,854.67 1623.33,904.67 1623.33,904.67
             1623.33,904.67 1689.33,948.00 1689.33,948.00
             1689.33,948.00 1739.33,974.67 1739.33,974.67
             1739.33,974.67 1727.00,1100.00 1727.00,1100.00
             1727.00,1100.00 1684.00,1251.00 1684.00,1251.00
             1684.00,1251.00 1624.00,1397.00 1624.00,1397.00
             1624.00,1397.00 1538.00,1530.00 1538.00,1530.00
             1538.00,1530.00 1442.00,1642.00 1442.00,1642.00
             1442.00,1642.00 1342.00,1742.00 1343.00,1741.00
             1344.00,1740.00 1248.00,1819.33 1248.00,1819.33
             1248.00,1819.33 1145.33,1892.67 1145.33,1892.67
             1145.33,1892.67 1000.67,1970.67 1000.67,1970.67 Z" />
</svg>
