<?xml version="1.0" encoding="UTF-8" standalone="no"?>
<!DOCTYPE svg PUBLIC "-//W3C//DTD SVG 20010904//EN"
              "http://www.w3.org/TR/2001/REC-SVG-20010904/DTD/svg10.dtd">

<svg xmlns="http://www.w3.org/2000/svg"
     width="705.467mm" height="705.467mm"
     viewBox="0 0 2000 2000">
  <path id="face"
        fill="none" stroke="black" stroke-width="1"
        d="M 816.00,801.50
           C 816.00,801.50 857.00,757.50 857.00,757.50
             857.00,757.50 879.00,720.50 879.00,720.50
             879.00,720.50 897.50,666.00 897.50,666.00
             897.50,666.00 900.50,615.00 900.50,615.00
             900.50,615.00 843.00,649.00 843.00,649.00
             843.00,649.00 778.00,663.00 778.00,663.00
             778.00,663.00 709.50,661.50 709.50,661.50
             709.50,661.50 653.50,641.50 653.50,641.50
             653.50,641.50 612.00,603.50 612.00,603.50
             612.00,603.50 586.50,551.50 586.50,551.50
             586.50,551.50 582.00,480.50 582.00,480.50
             582.00,480.50 596.00,429.00 596.00,429.00
             596.00,429.00 635.50,372.50 635.50,373.00
             635.50,373.50 662.50,316.00 662.50,316.00
             662.50,316.00 662.50,274.50 662.50,274.50
             662.50,274.50 652.00,239.00 652.00,239.00
             652.00,239.00 707.00,241.00 707.00,241.00
             707.00,241.00 761.00,250.50 761.00,250.50
             761.00,250.50 813.50,266.00 813.50,266.00
             813.50,266.00 861.00,288.00 861.50,289.00
             862.00,290.00 912.50,321.00 912.50,321.00
             912.50,321.00 956.00,356.50 956.00,356.50
             956.00,356.50 1000.00,399.50 1000.00,399.50
             1000.00,399.50 1043.50,356.00 1043.50,356.00
             1043.50,356.00 1084.50,323.50 1084.50,323.50
             1084.50,323.50 1142.00,288.00 1142.00,288.00
             1142.00,288.00 1188.50,265.50 1188.50,265.50
             1188.50,265.50 1237.50,251.00 1237.50,251.00
             1237.50,251.00 1305.00,240.00 1305.00,240.00
             1305.00,240.00 1349.00,239.00 1349.00,239.00
             1349.00,239.00 1339.50,275.00 1339.50,275.00
             1339.50,275.00 1338.50,315.00 1338.50,315.00
             1338.50,315.00 1367.00,373.00 1367.00,373.00
             1367.00,373.00 1405.00,432.00 1405.00,432.00
             1405.00,432.00 1420.00,477.00 1420.00,477.00
             1420.00,477.00 1414.00,545.00 1414.00,545.00
             1414.00,545.00 1387.00,609.00 1387.00,609.00
             1387.00,609.00 1334.00,648.00 1334.00,648.00
             1334.00,648.00 1276.50,665.00 1276.50,665.00
             1276.50,665.00 1221.50,664.00 1221.50,664.00
             1221.50,664.00 1159.00,648.00 1159.00,648.00
             1159.00,648.00 1100.00,616.50 1100.00,616.50
             1100.00,616.50 1102.00,669.00 1102.00,669.50
             1102.00,670.00 1123.00,722.00 1123.00,722.00
             1123.00,722.00 1149.00,768.50 1149.00,768.50
             1149.00,768.50 1184.00,802.50 1184.00,802.50
             1184.00,802.50 998.50,844.50 998.50,844.50
             998.50,844.50 816.00,801.50 816.00,801.50 Z" />
</svg>
