<?xml version="1.0" encoding="UTF-8" standalone="no"?>
<!DOCTYPE svg PUBLIC "-//W3C//DTD SVG 20010904//EN"
              "http://www.w3.org/TR/2001/REC-SVG-20010904/DTD/svg10.dtd">

<svg xmlns="http://www.w3.org/2000/svg"
     width="705.467mm" height="705.467mm"
     viewBox="0 0 2000 2000">
  <path id="forehead"
        fill="none" stroke="black" stroke-width="1"
        d="M 998.00,315.33
           C 998.00,315.33 934.00,272.00 934.00,272.00
             934.00,272.00 842.00,226.67 842.00,226.67
             842.00,226.67 721.33,198.67 720.67,198.67
             720.00,198.67 817.33,146.67 817.33,146.67
             817.33,146.67 923.33,118.67 923.33,118.67
             923.33,118.67 998.67,111.33 998.67,111.33
             998.67,111.33 1114.00,124.67 1114.00,124.67
             1114.00,124.67 1194.67,150.67 1194.67,150.67
             1194.67,150.67 1278.00,198.00 1278.00,198.00
             1278.00,198.00 1147.33,231.33 1147.33,231.33
             1147.33,231.33 1060.00,276.67 1060.00,276.67
             1060.00,276.67 998.00,315.33 998.00,315.33 Z" />
</svg>
