<?xml version="1.0" encoding="UTF-8" standalone="no"?>
<!DOCTYPE svg PUBLIC "-//W3C//DTD SVG 20010904//EN"
              "http://www.w3.org/TR/2001/REC-SVG-20010904/DTD/svg10.dtd">

<svg xmlns="http://www.w3.org/2000/svg"
     width="705.467mm" height="705.467mm"
     viewBox="0 0 2000 2000">
  <path id="inter_contour"
        fill="none" stroke="black" stroke-width="1"
        d="M 1000.50,1929.50
           C 1000.50,1929.50 831.00,1824.00 831.00,1824.00
             831.00,1824.00 682.00,1707.00 682.00,1707.00
             682.00,1707.00 558.50,1583.00 558.50,1583.00
             558.50,1583.00 467.33,1462.00 467.33,1462.00
             467.33,1462.00 388.67,1325.33 388.67,1325.33
             388.67,1325.33 335.33,1192.67 335.33,1192.67
             335.33,1192.67 312.00,1094.67 312.00,1094.67
             312.00,1094.67 303.33,992.00 303.33,992.00
             303.33,992.00 374.00,953.33 374.00,953.33
             374.00,953.33 438.67,902.67 438.67,902.67
             438.67,902.67 500.67,834.67 500.67,834.67
             500.67,834.67 527.33,781.33 527.33,781.33
             527.33,781.33 602.67,785.33 602.67,785.33
             602.67,785.33 626.00,761.33 626.00,761.33
             626.00,761.33 627.33,727.33 627.33,727.33
             627.33,727.33 574.00,682.00 574.00,682.00
             574.00,682.00 535.33,611.33 535.33,611.33
             535.33,611.33 512.00,525.00 512.00,525.00
             512.00,525.00 525.00,437.00 525.00,437.00
             525.00,437.00 582.00,302.67 582.00,302.67
             582.00,302.67 604.67,233.33 604.67,233.33
             604.67,233.33 608.67,163.33 608.67,163.33
             608.67,163.33 596.67,98.00 596.67,98.00
             596.67,98.00 650.67,116.67 650.67,116.67
             650.67,116.67 718.00,124.67 718.00,124.67
             718.00,124.67 804.67,116.67 804.67,116.67
             804.67,116.67 888.67,95.33 888.67,95.33
             888.67,95.33 985.33,79.33 985.33,79.33
             985.33,79.33 1080.67,88.67 1080.67,88.67
             1080.67,88.67 1170.00,110.67 1170.00,110.67
             1170.00,110.67 1248.67,124.00 1248.67,124.00
             1248.67,124.00 1336.00,120.67 1336.00,120.67
             1336.00,120.67 1401.33,99.33 1401.33,99.33
             1401.33,99.33 1392.67,166.00 1392.67,166.00
             1392.67,166.00 1396.67,233.33 1396.67,233.33
             1396.67,233.33 1415.33,297.33 1415.33,297.33
             1415.33,297.33 1474.00,433.67 1474.00,435.00
             1474.00,436.33 1486.00,538.00 1486.00,538.00
             1486.00,538.00 1457.00,629.00 1457.00,629.00
             1457.00,629.00 1417.67,694.00 1417.00,694.00
             1416.33,694.00 1372.00,730.00 1372.00,730.00
             1372.00,730.00 1372.67,760.00 1372.67,760.00
             1372.67,760.00 1399.33,783.33 1399.33,783.33
             1399.33,783.33 1471.00,782.50 1471.00,782.50
             1471.00,782.50 1506.50,843.50 1506.50,843.50
             1506.50,843.50 1557.00,897.50 1557.00,897.50
             1557.00,897.50 1629.50,954.00 1629.50,954.00
             1629.50,954.00 1699.00,998.00 1699.00,998.00
             1699.00,998.00 1686.00,1100.00 1686.00,1100.00
             1686.00,1100.00 1661.33,1200.00 1661.33,1200.00
             1661.33,1200.00 1611.00,1332.33 1612.00,1331.33
             1613.00,1330.33 1535.33,1462.67 1535.33,1462.67
             1535.33,1462.67 1442.00,1584.00 1442.00,1584.00
             1442.00,1584.00 1329.00,1698.50 1329.00,1698.50
             1329.00,1698.50 1170.00,1827.00 1170.00,1827.00
             1170.00,1827.00 1000.50,1929.50 1000.50,1929.50 Z" />
</svg>
