<?xml version="1.0" encoding="UTF-8" standalone="no"?>
<!DOCTYPE svg PUBLIC "-//W3C//DTD SVG 20010904//EN"
              "http://www.w3.org/TR/2001/REC-SVG-20010904/DTD/svg10.dtd">

<svg xmlns="http://www.w3.org/2000/svg"
     width="705.467mm" height="705.467mm"
     viewBox="0 0 2000 2000">
  <path id="left_eye"
        fill="none" stroke="black" stroke-width="1"
        d="M 680.67,476.67
           C 680.67,476.67 693.33,426.00 693.33,426.00
             693.33,426.00 732.67,386.00 732.67,386.00
             732.67,386.00 788.00,370.67 788.00,370.67
             788.00,370.67 847.33,388.67 847.33,388.67
             847.33,388.67 884.67,424.67 884.67,424.67
             884.67,424.67 898.67,482.67 898.67,482.67
             898.67,482.67 880.00,536.00 880.00,536.00
             880.00,536.00 838.67,574.00 838.67,574.00
             838.67,574.00 789.33,585.33 789.33,585.33
             789.33,585.33 730.67,568.00 730.67,568.00
             730.67,568.00 689.33,518.67 689.33,518.67
             689.33,518.67 680.67,476.67 680.67,476.67 Z" />
</svg>
