<?xml version="1.0" encoding="UTF-8" standalone="no"?>
<!DOCTYPE svg PUBLIC "-//W3C//DTD SVG 20010904//EN"
              "http://www.w3.org/TR/2001/REC-SVG-20010904/DTD/svg10.dtd">

<svg xmlns="http://www.w3.org/2000/svg"
     width="705.467mm" height="705.467mm"
     viewBox="0 0 2000 2000">
  <path id="letter_U"
        fill="none" stroke="black" stroke-width="1"
        d="M 692.00,1148.00
           C 692.00,1148.00 627.00,1148.50 627.00,1148.50
             627.00,1148.50 628.00,990.50 628.00,990.50
             628.00,990.50 969.00,990.50 969.00,990.50
             969.00,990.50 967.00,1147.00 967.00,1147.00
             967.00,1147.00 910.00,1148.00 910.00,1148.00
             910.00,1148.00 909.50,1481.00 909.50,1481.00
             909.50,1481.00 921.50,1502.50 921.50,1502.50
             921.50,1502.50 949.50,1519.50 949.50,1519.50
             949.50,1519.50 1048.50,1521.00 1048.50,1521.00
             1048.50,1521.00 1076.50,1505.50 1076.50,1505.50
             1076.50,1505.50 1091.00,1480.50 1091.00,1480.50
             1091.00,1480.50 1091.00,1146.00 1091.00,1146.00
             1091.00,1146.00 1030.50,1146.00 1030.50,1146.00
             1030.50,1146.00 1030.50,990.00 1030.50,990.00
             1030.50,990.00 1371.50,989.50 1371.50,989.50
             1371.50,989.50 1373.00,1148.00 1373.00,1148.00
             1373.00,1148.00 1305.00,1147.00 1305.00,1147.00
             1305.00,1147.00 1306.50,1526.00 1306.50,1526.00
             1306.50,1526.00 1131.50,1697.50 1131.50,1697.50
             1131.50,1697.50 869.50,1700.50 869.50,1700.50
             869.50,1700.50 693.50,1527.00 693.50,1527.00
             693.50,1527.00 692.00,1148.00 692.00,1148.00 Z" />
</svg>
