<?xml version="1.0" encoding="UTF-8" standalone="no"?>
<!DOCTYPE svg PUBLIC "-//W3C//DTD SVG 20010904//EN"
              "http://www.w3.org/TR/2001/REC-SVG-20010904/DTD/svg10.dtd">

<svg xmlns="http://www.w3.org/2000/svg"
     width="705.467mm" height="705.467mm"
     viewBox="0 0 2000 2000">
  <path id="neck"
        fill="none" stroke="black" stroke-width="1"
        d="M 569.25,826.00
           C 569.25,826.00 582.00,808.75 582.00,808.75
             582.00,808.75 615.75,808.25 615.75,808.25
             615.75,808.25 638.75,785.25 638.75,785.25
             638.75,785.25 998.50,867.50 998.50,867.50
             998.50,867.50 1361.50,782.50 1361.50,782.50
             1361.50,782.50 1387.00,809.50 1387.00,809.50
             1387.00,809.50 1419.50,807.50 1419.50,807.50
             1419.50,807.50 1431.50,827.50 1431.50,827.50
             1431.50,827.50 999.50,926.00 999.50,926.00
             999.50,926.00 569.25,826.00 569.25,826.00 Z" />
</svg>
