<?xml version="1.0" encoding="UTF-8" standalone="no"?>
<!DOCTYPE svg PUBLIC "-//W3C//DTD SVG 20010904//EN"
              "http://www.w3.org/TR/2001/REC-SVG-20010904/DTD/svg10.dtd">

<svg xmlns="http://www.w3.org/2000/svg"
     width="705.467mm" height="705.467mm"
     viewBox="0 0 2000 2000">
  <path id="right_eye"
        fill="none" stroke="black" stroke-width="1"
        d="M 1100.00,477.33
           C 1100.00,477.33 1118.00,421.33 1118.00,421.33
             1118.00,421.33 1161.33,383.33 1161.33,383.33
             1161.33,383.33 1216.67,370.67 1216.67,370.67
             1216.67,370.67 1278.67,397.33 1278.67,397.33
             1278.67,397.33 1310.00,432.67 1310.00,432.67
             1310.00,432.67 1318.67,486.00 1318.67,486.00
             1318.67,486.00 1302.67,535.33 1302.67,535.33
             1302.67,535.33 1266.00,566.67 1266.00,566.67
             1266.00,566.67 1216.67,586.00 1216.67,586.00
             1216.67,586.00 1158.67,571.33 1158.67,571.33
             1158.67,571.33 1112.67,527.33 1112.67,527.33
             1112.67,527.33 1100.00,477.33 1100.00,477.33 Z" />
</svg>
